<svg width="20" height="20" viewBox="0 0 20 20" fill="none" xmlns="http://www.w3.org/2000/svg">
<g clip-path="url(#clip0)">
<path d="M17.6563 1.54356e-06L2.34375 2.04897e-07C1.05141 9.19169e-08 -9.19168e-08 1.05141 -2.04897e-07 2.34375L-1.54356e-06 17.6562C-1.65654e-06 18.9486 1.0514 20 2.34375 20L17.6563 20C18.9486 20 20 18.9486 20 17.6562L20 2.34375C20 1.05141 18.9486 1.65654e-06 17.6563 1.54356e-06ZM18.4375 17.6562C18.4375 18.087 18.087 18.4375 17.6563 18.4375L13.2031 18.4375L13.2031 12.0703L15.6168 12.0703L16.0156 9.64844L13.2031 9.64844L13.2031 7.96875C13.2031 7.30566 13.7119 6.79688 14.375 6.79688L15.9766 6.79688L15.9766 4.375L14.375 4.375C12.3858 4.375 10.7821 5.98633 10.7821 7.97555L10.7821 9.64844L8.4375 9.64844L8.4375 12.0703L10.7821 12.0703L10.7821 18.4375L2.34375 18.4375C1.91297 18.4375 1.5625 18.087 1.5625 17.6562L1.5625 2.34375C1.5625 1.91297 1.91297 1.5625 2.34375 1.5625L17.6563 1.5625C18.087 1.5625 18.4375 1.91297 18.4375 2.34375L18.4375 17.6562Z" fill="white"/>
</g>
<defs>
<clipPath id="clip0">
<rect width="20" height="20" fill="white"/>
</clipPath>
</defs>
</svg>
