<svg width="19" height="19" viewBox="0 0 19 19" fill="none" xmlns="http://www.w3.org/2000/svg">
<path d="M0.807501 4.2275C1.32288 3.31075 1.88219 3.14213 3.021 3.078C4.15862 3.00081 7.01931 2.96875 9.49763 2.96875C11.9807 2.96875 14.8426 3.00081 15.979 3.07681C17.1154 3.14213 17.6759 3.30956 18.1961 4.2275C18.7269 5.14306 19 6.72006 19 9.49644C19 9.49881 19 9.5 19 9.5C19 9.50238 19 9.50356 19 9.50356V9.50594C19 12.2704 18.7269 13.8593 18.1961 14.7654C17.6759 15.6821 17.1166 15.8484 15.9802 15.9256C14.8426 15.9921 11.9807 16.0312 9.49763 16.0312C7.01931 16.0312 4.15863 15.9921 3.01981 15.9267C1.881 15.8496 1.32169 15.6833 0.806313 14.7666C0.27075 13.8605 0 12.2716 0 9.50712C0 9.50712 0 9.50356 0 9.50119C0 9.50119 0 9.49881 0 9.49763C0 6.72006 0.27075 5.14306 0.807501 4.2275ZM11.875 13.0625V5.9375L5.9375 9.5L11.875 13.0625Z" fill="white"/>
</svg>
